<?xml version="1.0" encoding="UTF-8"?> <svg xmlns="http://www.w3.org/2000/svg" id="Capa_1" data-name="Capa 1" viewBox="0 0 399.19 384.66"><defs><style>.cls-1{fill:#1370fd}.cls-1,.cls-2,.cls-6{fill-rule:evenodd}.cls-3{fill:#fff}.cls-6{fill:#f98012;stroke:#000;stroke-miterlimit:10;stroke-width:4px}</style></defs><path d="M337.4 238.85c.75-9.24-9.26-12.45-11.2-18.83s8.54-13.67 12-19.61S339.41 175 326.82 171s-31.09 16.66-35 24 4.19 32.8 4.67 38.12-1.3 11.43 5.45 17.12 13.58 9.42 17.27 8.24 17.45-10.38 18.19-19.63Z" class="cls-1"></path><path d="M339.24 197.89v-3.73a49.47 49.47 0 0 0-3.58-14.78c-1.68-4-4.09-8.22-8.09-10.11-5.89-2.79-12.33 1.23-16.18 3.74a80.61 80.61 0 0 0-9.65 7.31c-6 5.2-12.75 11.27-13.54 20.38-.46 5.38 1.23 10.35 2.49 14.47s3.31 8.82 3.73 13.38c.41 4.33-1.08 7.94-.93 12.13.23 6.22 4.17 9.57 7.78 12.45 1.14.91 8 6.59 8.71 2.18.29-1.82-1.57-2.81-2.49-3.42-3.49-2.32-7.57-5.05-8.86-9-1.16-3.54.4-8.19.46-12.13.06-3.74-.86-6.51-1.87-9.8-.88-2.85-1.71-5.73-2.65-9-.84-3-2-6.78-1.87-10 .3-8.42 7.31-14 12.14-18.2a74.85 74.85 0 0 1 8.56-6.69c2.5-1.68 7-4.7 11-3.89 3.87.77 6.36 6.34 7.78 10.27 1.65 4.57 3.17 10.41 2.18 15.41-.79 4-3.91 7-6.22 9.8-2.12 2.58-5.08 6-5.45 9.8-.55 5.65 3.12 8.94 5.76 11.67 1.72 1.79 4.17 3.87 4.82 5.92 1.4 4.39-.62 9.27-2.49 11.67-3 3.87-8.2 5.24-12.44 8.09 1.36-3.19 2.4-5.08 2.65-8.24.87-11.35-6.57-19.29-9-27.07-1.72-5.46-1.54-13.18.78-17.89a26.05 26.05 0 0 1 5.14-6.69c1.4-1.46 5.57-4.08 5.13-6.38a2 2 0 0 0-1.71-1.71c-2.33-.48-5.77 3.82-7.15 5.29a34.42 34.42 0 0 0-5.45 7.31c-2.72 5.41-3.12 14.62-1.25 21 2.07 7 7.51 13 8.71 21.32 1.46 10.14-5.24 14.62-8.24 21.63a19.75 19.75 0 0 0 .31 16c4.08 8.19 10.89 12.16 13.53 21 2.06 6.9 2.72 14.45 3.11 22.87.17 3.72.52 6.15 2.65 6.07 2.4-.1 2.22-3.06 2-6.54-.49-8.59-1.49-17.24-3.42-23.65a32.89 32.89 0 0 0-6.13-11.69c-2.66-3.37-5.7-6.36-7.62-10.43-3-6.4 0-13.58 3.27-17.73 1.15.11 1.42.86 3 .62.91-.14 3-1.45 4.36-2.18 7.28-3.91 15.4-8.52 15.4-19.44 0-6.28-3-8.65-6.22-12-1.86-1.9-4.64-4.86-4.66-7.78 0-2.42 1.49-4 2.8-5.75 3.49-4.75 8.12-9.33 8.91-15.86Z" class="cls-2"></path><path d="M355.1 245.36c-2-2.12-6.93-13.06-7-22.56s7.88-12.42 13.22-19 2.47-17.31 5.14-24.27 16.43-10.4 22.25-8.56 7.2 11.62 7.16 21.16-6.25 12.81-11.2 19.45 9.3 22.22 5.92 31-25.05 8.18-28.63 8.24-4.89-3.33-6.86-5.46Z" class="cls-1"></path><path d="M366.44 247.4c3.54-3 7.3-6.54 7.77-13.07.3-4-.49-8.28-1.24-12.44-.68-3.7-2.21-8.59-1.56-12.13.47-2.56 2.72-4.34 4.36-5.92s3.74-3.53 4.67-5.6c1.11-2.48 3-13.63-1.4-13.38-3.29.19-1.58 8.16-2.65 11-.8 2.16-3.32 4-5.13 5.91s-4 4.44-4.51 7.78c-.55 4 .79 8.39 1.56 12.44 1 5.26 2.3 11.61.31 16-3.61 8-15.83 8.4-16.8 19.45-.61 6.85 2.2 12 4 17.27s3.88 10.72 4.66 16.64c1.11 8.34 1.18 21.28 1.09 29.56 0 3.07-.83 8.34 2.18 8.4 2.72.06 2.49-3.6 2.49-7.47 0-10.31.13-20.49-.93-29.4a76.47 76.47 0 0 0-4-16.34c-1.83-5.15-4.34-9.82-4.83-15.4-.41-4.71 1.25-7.12 3.89-9.34a13.82 13.82 0 0 0 4.83.63c7.57.08 17.71-.73 22.72-3.74a9 9 0 0 0 4.66-7.62c.29-7.75-5.75-14.45-6.38-22.72-.74-9.73 8.69-13.78 11.67-20.69 3.48-8.07-.58-20.25-4.66-25a10.65 10.65 0 0 0-8.87-4 23.89 23.89 0 0 0-12.14 4.19c-3.24 2.15-6.55 5-8.24 8.09-3.27 5.89-1.2 14.95-4 21s-9.5 9.9-12.76 15.87c-4.61 8.43.94 19 4.82 25.52.91 1.53 2.2 4.44 4.36 4.19 3.5-.39 1.22-4.11-.16-6.37-.78-1.29-2.05-3.5-2.8-5-1.74-3.46-4.13-8.62-3.27-13.07.61-3.18 3.15-6.13 5.45-8.55 4.56-4.83 9.16-9.11 10.42-17.43.74-4.86.08-10.36 2.18-14 1.63-2.83 4.28-4.86 7.47-6.85 2.7-1.68 7.21-3.91 10.89-2.8 4.9 1.48 7.94 11.1 7.94 17.58 0 8.4-7.25 11.76-10.74 17.9a16.26 16.26 0 0 0-2.18 9.49c.29 4.12 2 8.29 3.42 12 1.11 2.9 4 8.12 2.65 12-1 2.78-5.47 3.91-8.87 4.51a99.8 99.8 0 0 1-12.34.91Z" class="cls-2"></path><path d="M367 121.26c12.86 12.5-3.32 32.85-12.45 44.19s4.14 27.29 15.56 38-.14 26-7.62 33.92-19.42 15.73-30.19 15.88-18.07-16.25-20.05-22.45 5.67-13.1 7-22.87-11.36-11.82-15.09-26 10.49-26.84 15.25-36.26-1.72-22.49-1.87-29.87 11.86-15 21.31-15.25 15.31 8.21 28.15 20.71Z" class="cls-1"></path><path d="M331.91 255.45c-1.7 7-4.89 13.85-4.36 21.78s3.52 13.92 6.54 19.91a58.32 58.32 0 0 1 6.22 20.23c.47 3.82.86 8.41 1.09 12.14.18 3-.82 10.87 2.8 10.74 2.78-.11 2.2-4.14 2-7.94-.43-9.35-1.35-19.39-3.57-26.76-1.56-5.17-4.06-9.65-6.22-14.16-2.29-4.76-4.49-9.3-4.36-15.87.11-5.65 2.12-11.75 3.57-16.8 3.11-10.79 6.51-20.05 9.65-31 1.47-5.12 3.65-11.15 3.27-17-.55-8.43-6.23-15.56-10.42-21.16-3.29-4.39-7.15-9.76-7.15-17.27a13.47 13.47 0 0 1 1.09-5.29c2.2-5.23 6.2-9.48 9.18-14.32a38 38 0 0 0 3.58-8.24c1.07-3.33 2.17-7.36 1.55-11.2a20.83 20.83 0 0 0-2.64-6.84c-.73-1.3-2.58-5.1-5.13-3.74-2.2 1.18-.21 4 .62 5.45 2.48 4.18 3.38 8 1.55 14a43.11 43.11 0 0 1-2.49 6.53c-3.52 6.87-9.58 11.65-11.35 19-1.6 6.57.81 14.47 3.11 18.67 4.09 7.5 13 14.44 13.85 24.27.31 3.85-.86 7.48-1.72 10.89-2.48 9.85-6 19.78-8.71 29.09a52.09 52.09 0 0 1-10.89-7.56c-3-2.59-7.41-6.62-7.62-11s2.32-7.64 4-10.73c2.08-3.73 5.09-7.77 4.36-13.53-1.09-8.56-10.64-10.73-14.16-17-3-5.23-3.69-15.46-1.4-21.78 1.46-4 4.46-7.06 6.85-10.27 4.85-6.52 8.93-14 7.15-26.14-.36-2.51-.95-4.83-1.4-7.15s-1.2-5.31-.78-8.09c.49-3.24 2.33-5.68 3.89-7.62 2.21-2.75 5.37-5.68 9.49-6.23 5.68-.74 10.84 1.65 14.47 3.58A39.92 39.92 0 0 1 365 125.38c2 4.11 3.86 10.39 3 15.41-.58 3.17-2.47 5.73-4.2 8.24s-3.52 5.06-5.13 7.31c-3.39 4.74-7.61 10.47-8.09 16.8-.64 8.37 3 13.95 6.54 19.14s8.23 9.86 10.74 14.94c2.71 5.49 2.67 16.23-.16 21.32-2.24 4-8.19 8.77-12.29 12-1.74 1.36-3.86 2.95-6.38 4.83-1.76 1.31-5.95 3.12-5 5.75 1.32 3.6 6.54-1.13 7.94-2.18 2.67-2 5-3.86 7.15-5.6 4.54-3.64 10.08-7.78 12.76-12.76 3.19-5.93 3.42-17 .63-24-2.15-5.33-6.52-9.87-10-14.63-3.31-4.58-7.51-10.52-7.47-17.11 0-6.79 4.4-11.92 8.09-17 3.84-5.26 9-10.68 9.64-17.58.59-6-1.28-11.71-3.26-16-5.6-12.17-17.32-23.58-32.21-25.36a18.84 18.84 0 0 0-14.63 4.66c-3.6 3.21-7.69 8.58-7.93 14.47-.33 8.16 3.49 14.15 2.8 23.18-.86 11.24-10.73 16.81-14.15 26.14-3.25 8.83-1.58 20.85 2.8 26.91 1.77 2.45 4.31 4.45 6.84 6.53 2.24 1.84 5.44 4.7 5.76 8.09s-2.47 7.35-4 10.11c-2.24 3.94-5.61 9.41-4 15.56 1.3 5.13 5.41 8.85 9 12a88.81 88.81 0 0 0 12.12 8.9Z" class="cls-2"></path><path d="m379 305-10 42.48a7.78 7.78 0 0 1-7.78 7.78h-50.33a7.78 7.78 0 0 1-7.78-7.78L293.3 305c0-4.3 4.53-7.78 10.11-7.78h65.51c5.6 0 10.08 3.48 10.08 7.78Z" class="cls-3"></path><path d="M361.3 357.6h-50.41a10.13 10.13 0 0 1-10.12-10.12l-9.74-42c-.06-6.1 5.52-10.64 12.38-10.64h65.51c6.87 0 12.45 4.54 12.45 10.12a2.15 2.15 0 0 1-.06.53l-10 42.48c.11 5.09-4.43 9.63-10.01 9.63Zm-57.89-58c-4.21 0-7.77 2.49-7.77 5.45l9.74 42c.06 3.53 2.5 6 5.51 6h50.41a5.45 5.45 0 0 0 5.45-5.45l10-42.72c-.18-2.85-3.67-5.21-7.77-5.21Z"></path><path d="m384.56 288.27 2.57 17.89a3.11 3.11 0 0 1-3.11 3.11h-97.56a3.11 3.11 0 0 1-3.11-3.11l2.57-17.89a3 3 0 0 1 3-3.11h92.74a3 3 0 0 1 2.9 3.11Z" class="cls-3"></path><path d="M384 311.61h-97.54a5.45 5.45 0 0 1-5.45-5.45l2.59-18.22a5.27 5.27 0 0 1 5.26-5.11h92.74a5.37 5.37 0 0 1 5.28 5.26l2.55 17.75a5.5 5.5 0 0 1-5.43 5.77Zm-95.13-24.11a.72.72 0 0 0-.62.78l-2.59 18.22a1 1 0 0 0 .8.44H384a.76.76 0 0 0 .78-.78l-2.54-17.56a2 2 0 0 1 0-.33.72.72 0 0 0-.62-.78Z"></path><path d="M341.1 270.95c-11-19.31-26-20.54-26-20.54s-53.29 4.59-54.62 3.89-45.95-90-51.5-98.19-11.61-16.1-18.67-19.45a55.78 55.78 0 0 0-20.7-5.13c-5.58-.16-17.11.34-15.25-5.45s5.91-18 5.91-18 7.15 1.35 12.29.62a51.78 51.78 0 0 0 11-3.27s-1.35 4.4-2.49 9.49-3.64 12.83-.93 13.07S193 116 193 116s4 6.53 5.3 5.76 2.28-8 5.75-27.7c4.39-24.79 1.26-35.75-.4-36.56a7.17 7.17 0 0 1-.69.46c.16-.44.4-.6.69-.46 1.56-1.18 4.79-4.6-1.31-9.34-7.66-6-19.21-10.78-26.45-12.76s-22.4-4.67-22.4-4.67S152.76 14.23 141 7s-20-8.14-26.77 4.41-11.14 52.19-26.61 61.15S54.41 85.63 51.52 94s2.18 23.5 2.18 23.5-17.44 5-16.81 18.67C38.19 164.14 74.08 172 74.08 172s-15.44 31.93-21 52.75-5 31.2 5.13 36.1A243.34 243.34 0 0 0 80.77 270s-12.49 19.07-15.71 30.34-9.21 23.93.62 38.43 33 23.31 51.66 20.7 36.29-13.82 35.47-12.45 4.46 9.18 10 19.76 7.32 15.1 12.91 14.47 13.43-4.19 16-7.78 5-10 5-10l3.11-2s16.51 8.22 21.94 7 14.61-6.47 14.61-6.47l9.65 6.69s51.92-3.62 57-4.83 22.27-6.27 21.78-21.47-16.48-19.5-20.85-19-24 4-24 4 50-15.56 53.37-19 18.73-18.13 7.77-37.44Zm-237.45-32.37L90 233.76l16.34-44.19L125 212.91Zm86.67-4-11.52-21.36 4-14.94 7-.93s11.62 22.81 13.23 23.19-12.71 14-12.71 14Z" style="fill:#fff;fill-rule:evenodd"></path><path d="m181.3 105.21-1.1 22.74 8.1-5.16 5.7-5.19 3.09 3.39 4-6.19L204 89.58l1.48-28.3-2-5.16 2-4.36s-8.41-6.26-8.7-6.7c-.12-.18-13.09-6.92-13.09-6.92l-21.26-5.9-9-1.55-6.21-19.54-14.88-9.38-11.49 3.64-9.87 14-8.11 26.73-9 22.2-16.79 10.6-22.37 11.68-3 10.69s.21 9.13.21 9.66 2.8 6.62 2.8 6.62l-12.31 5.2-4.59 10.55v13l7.65 12.26 22.2 14.55 5.55-2.23 5.5-16.16 13.64-20.51 13.61-7h13.8l11.79-.36 6.08-9.31-1.25-4.83 7.34 6.62 4.65 2.33 3.76-40.28L184.8 65.5l9.59-4.5 2.5 8.85-.36 3.68s.32 23.6-15.23 31.68Z" style="fill:#fece26;fill-rule:evenodd"></path><path d="M335.52 258.18c-5-5.15-12.34-8.19-20.84-10-2.54-.53-7.27-1.58-7.31 1.4s6 3 8.86 3.74a50.14 50.14 0 0 1 9.34 3.27c5.68 2.69 9.75 7.75 12.44 12.91a31.5 31.5 0 0 1 2.33 21c-1.5 6.29-5.28 12.78-9.33 16-4.35 3.47-11.45 5.62-17.43 7.78-17.4 6.29-36 11.59-53.83 16.8-14.78-6.84-29.67-13.58-44.34-20.54 22.7-10.3 46-20.91 68.76-31.27 2-.91 8.87-2.79 8.71-5.6-.23-4.08-5.31-.91-7-.15-25.36 11.37-51.49 23.3-76.08 34.54C185 296.92 160.88 285 135 274.82c1.29-.57 2.26-1.47 3.74-1.86 5.14 3.51 10.55 8.24 18.67 6.22 6.62-1.65 13.78-4.76 16.34-10s-2.66-10.5-5.45-13.7c-2.09-2.38-4.14-4.37-6.22-6.37-.63-.61-1.88-1.39-1.56-2 3.31.35 6.71 4.74 10.89 5 2.83.16 5.92-2.2 5.92-5 0-2-1.82-3.62-3-4.82a45.8 45.8 0 0 0-4-3.89c-2.82-2.33-6.2-5.33-10.74-5.13-2.91.13-5.93 2.2-8.24 3.74-7.46 5-13.72 10.86-20.07 16.18-8.51-4.51-17.5-8.54-26-13.07 5.82-8.26 12-15.15 18.67-22.72.91-1 2.07-2.86 3-3.11 1.4-.39 3.87 0 5.91 0h41.85c8.09 10 14.13 23 19.61 36.25.76 1.83 1.58 4.53 3.42 4.67 3.21.24 2.34-3.15 1.4-5.45-5.15-12.61-10.36-23.53-17.58-33.92-.34-.49-1.72-1.89-1.72-2.34a7.41 7.41 0 0 0 .78-1.24c1.5-3.63 2.1-7.73 3.26-11 1.1-.51 2.23-1 3.27-1.55 8.09 11.93 16.4 24.46 24.58 36.41 1.11 1.62 2.3 4.47 4.51 4.2 4.19-.52 0-5.89-1.09-7.47-8-12-16.47-24-24-35.47 1.55-1.59 3.24-2.5 4.66-4.2 3.36-4 4.13-10.41 3.42-16.49s-4.36-10.25-7-13.54c.52-1.84 3.72-3.2 3-6.07a2.24 2.24 0 0 0-2.33-1.4c-2 .08-5.87 6.34-5.76 8.09.13 2 2.6 3.6 3.58 4.83a25.09 25.09 0 0 1 3.27 5.13c2 5.07 1.12 12.87-1.71 16.34a21.8 21.8 0 0 1-5.45 4.51c-1.57.95-5.45 2.17-6.54 3.42s-1.52 4.08-2 5.76c-.58 1.94-.84 4-1.87 5.91-16.73 0-34.72-.11-50.25.16-5.8-7.27-11.27-14.86-16.81-22.4.58-1.63 1.29-3.33 2-5.45s3.06-8-1.4-7.15c-1.83.34-2.6 4.64-3.27 6.53-5.95 16.74-12.28 34.72-17.92 50.64a37.85 37.85 0 0 1-4.36-2.18c-2.06-1-6.43-3.21-6.38.62 0 2.23 4.21 3.58 5.75 4.36 14 7 27.22 13.43 41.08 20.22 1.9.94 5.15 3.27 7.15 3.11s4.85-3.67 6.69-5.29a143.6 143.6 0 0 1 13.38-10.73c2.2-1.56 5.4-4.21 7.94-4.2 2.7 0 5.41 2.47 7.15 3.89.92.74 1.88 1.72 2.8 2.64s2.44 1.71 2 3a21.15 21.15 0 0 1-5.45-2.49c-1.5-.86-3.47-2.77-5.29-2.8a16.64 16.64 0 0 0-5.29 1.56c-1.18.55-2.33 1.6-2.33 2.8 0 1.61 2.6 3.66 4 5a71.33 71.33 0 0 1 9 9.18c1.82 2.34 4.89 6.15 1.56 8.09-3.39-4.85-7.33-10.55-12.14-14.78-1.06-.93-3.44-3.87-5.75-3.27a2.38 2.38 0 0 0-1.4 1.72c-.31 2.21 2.7 3.94 3.74 4.82 4.92 4.22 8.36 9.06 11.67 14.31a27.48 27.48 0 0 1-3.74 1.72c-4.25-4.19-9.37-8.93-14.16-13.38-1.1-1-3.22-4.18-5.6-3.73a2.51 2.51 0 0 0-1.72 2c-.12 1.91 2.72 3.88 3.58 4.67 1.69 1.55 3.07 2.81 4.36 4 3 2.85 6.25 5.26 8.24 8.09-7.36 1-10.55-4.51-15.56-6.84-1.85-.59-7.54-5-8.09-.78-.25 1.92 1.32 2.12 1.72 3.11-1.8.22-3.23 2.56-5.45 2.8-1.64.18-3.45-.61-5.13-.63-5.7 0-9.73 2.15-13.7 3.74-11.62-4.14-23.56-7.95-35-12-5.46-1.92-11.69-3.69-16.49-7a16.16 16.16 0 0 1-6.54-16.65c.9-5 3.25-10.19 5-15.4 5.2-15.72 10.22-30.48 15.87-45.74 3.59-9.7 7.05-19.73 11.36-29.57 2.81-6.43 7.92-13.2 14-16.8 1.92-1.13 5.65-3 7.62-2.64 1 .18 2.69 1.9 3.89 2.8 3.91 2.94 8.46 6 11.36 9.18 4.36 4.81 8.63 9.17 15.41 12 6 2.5 14.59 4.89 22.56 4.83 7.73-.06 16.91-2.46 21-6.38 3.11-3 5-9.21 3.42-15.41 13.32 3.79 19.72 13.77 26 24.58C215 173.31 220.05 183 226.46 195c2.36 4.44 6.16 11.42 8.71 16.49.95 1.88 1.65 4.78 4.05 4.51s2.05-2.35 1.09-4.36c-4.06-8.43-8.83-17.09-12.91-24.9-5.12-9.77-10.33-18.6-15.41-27.69-5.43-9.74-10.72-17.63-20.38-22.72a51.78 51.78 0 0 0-15.87-5.6c-2.65-.43-6-.68-9.8-.94-3.23-.22-7.39-.35-8.4-2.49-1.19-2.51.39-7 1.09-9.18a48.58 48.58 0 0 1 3.11-7.78c5.38 2.07 13.28 1.07 18.36-.62a79.06 79.06 0 0 1-1.71 9.8c-.94 4.42-2.73 13 4 10.73 4.2-1.43 7.94-6.42 10.74-9 1 1.2 1.43 2.56 3.42 2.49s3.7-2.6 4.82-4.36a24.55 24.55 0 0 0 3.11-6.22c.87-3.17 1-7 1.4-10.74s.62-7.46.93-11.35c.87-10.92 2.88-25.6-1.71-33.3 1.22-1.15 2.83-1.8 3.12-3.58.61-3.83-3.56-7.24-5.6-8.87-6.87-5.44-15.89-8.69-25.05-11.2-2-.54-4.07-.64-6.22-1.09-2.44-.51-5.1-1.82-7.93-2.49a79.84 79.84 0 0 0-9-1.4c-1-7.35-1.87-14.35-5.6-19.29a26.83 26.83 0 0 0-8.4-6.85A21.67 21.67 0 0 0 128 .07c-6.62.56-10.89 5.85-14 10.74-3.34 5.25-6.44 10.66-8.24 16.64-1.92 6.34-3.34 13.21-5.14 19.61-1.86 6.55-3.62 13.16-7.18 17.73C88.56 71.07 79.31 76.11 71.5 80c-2.86 1.43-5.45 3.24-8.09 4.36-6.94 2.91-11.57 3.71-13.69 11.2-2 7-1.11 16 1.87 21.16-5 2.15-9.8 4.14-12.76 8.09-7.57 10.11-2.34 26 3.27 33.14 6.77 8.56 16.15 13.93 26.6 17.43-6.54 17.85-13.52 37-19.44 55.85-1.61 5.1-3.42 10.13-2.8 15.72 1.87 16.81 19 18.55 32.52 24.11a127.78 127.78 0 0 0-18 34.85c-2.27 6.84-4.09 15.33-2.65 22.56 2.86 14.29 12.71 23.22 25.67 27.39 12.63 4.06 31.76 6.32 46.83 3.27a150.16 150.16 0 0 0 20.54-6.07c2.85 5.84 5.73 11.68 9 17.89 3 5.75 6.72 12.36 13.54 13.54 5.2.9 9.2-2.51 12.6-4.83a40.75 40.75 0 0 0 7.78-6.38c3-3.45 4.77-7.53 7.93-11 3.39 1.52 4.26-2.21 5.6-2.49s2.34 1 3.89.93c.76-.46 1-1.09 1.87-1.55 1.18-.68 2.73-1 3.57-2-27.87-6.33-59-13.14-87.75-19.76-2.89-.66-7.77-2.54-7.46 1.4.18 2.41 4 2.46 6.22 3 7.64 1.7 15.42 3.56 22.55 5.29a5.5 5.5 0 0 1-3.57 2.64 135.83 135.83 0 0 1-14.65 4.26 81.85 81.85 0 0 1-23.19 1.72c-23.07-1.34-43.5-8.18-46.67-29.1-1.07-7 1.16-14.89 3.42-21.31a109.08 109.08 0 0 1 17.89-32.68c6.31 2.4 13.21 4.22 19.45 6.69-4.87 2.14-10.9 5.5-16 8.24-1.76 1-4.59 1.48-4.2 4.05.16 1.05.68 1.28 1.4 1.55 2.22.85 7.71-3.19 10.59-4.66 3.75-1.93 7.27-3.74 10.58-5.29a116.43 116.43 0 0 1 10.89-5c4.31-1.53 9.16-.83 13.85.31 8.22 2 15.48 5.64 22.87 8.87 34.45 15 69.21 31.84 103.62 47.61 1.83.84 4.44 2.29 5.76 2.34 1.73.06 4.14-1 6.07-1.56 6.07-1.62 12.53-3.42 18.52-4.66 4.09 8.66 8.18 18.16 7.15 31.42-11.47.64-24.73.94-36.88.94-4.24 0-8.65.41-12.6 0a65.21 65.21 0 0 1-8.79-2.09 6 6 0 0 1-2.31 1.48l.89-.37c-1.39.64-2.57 1.64-3.89 2.4 5.25 1.23 10.62 3.25 16.28 3.25 13.61 0 27.22-.16 40.61-.62 10.34-.36 19.89-1.63 27.07-5.92a27.76 27.76 0 0 0 8.4-8.09c2.34-3.38 4.34-7.71 3.73-12.76-.69-5.75-5.82-9.88-10-12.6-4.56-3-10.45-5.63-17.58-4.21 10.7-3.56 21-6.69 29.87-11 8.63-4.24 14.54-13.32 16.18-24.74a34.79 34.79 0 0 0-9.95-30.03ZM93 234.22q7.24-20.69 14.47-41.39c5 6.4 9.68 13 14.62 19.45-6.92 8.69-14.8 16.41-21 25.83-2.85-1.18-5.3-2.72-8.09-3.89ZM202.19 91.4c-.27 3.51-.61 7.1-.93 10.57-.62 6.58-1.08 12-4.2 15.72-.88-1.64-.66-3.79-2.64-4-2.77-.36-4.35 4.31-5.92 6.07a35.18 35.18 0 0 1-6.38 5.29c.78-6.07 2.64-11.05 2.8-17.74a26.66 26.66 0 0 0 10.74-16c.53-2.19 2.71-9-1.09-9-1.59 0-2.27 1.63-2.64 3.89-1 6.24-2.42 9.76-5.6 13.53-3.71 4.4-9.66 7.79-18.2 7.32a21.76 21.76 0 0 1-6.84-1.87c-2-.86-7.94-4.67-7.94-.15 0 2.23 2.1 2.33 4 3.57-2.17 5.88-9 19.27-1.25 24 4.81 2.92 13.1 1.51 19.61 3 4 2.79 3.35 11.62-.31 14.62s-12 4.94-18.67 4.67a60.33 60.33 0 0 1-19-4.2c-5.67-2.27-9.55-6.14-13.22-10-4-4.15-8.61-7.51-12.44-10.73 6.62-.93 15.62.88 21-1.55 3.47-1.58 4.19-5.28 5.6-9 .89-.18 1.41 1 2.18 1.56s1.67 1.27 2.49 1.87c1.66 1.2 6.42 5.13 7.78 1.71.52-1.3-.1-4.28-.16-5.91-.43-12.28 2.87-25.48 3.89-35.63 12.19-6.17 24.91-11.8 37.18-17.89a18 18 0 0 1 2.33 5.29A16 16 0 0 0 181 74.9c-2.69 2.89-5.07 10.45-5 15.56 0 2.39 1 4 2 5.92-.45 1.31-2.42 1.61-2.34 3.73a2.16 2.16 0 0 0 2.18 2.18c1.55 0 5.35-3.6 5.45-5.13.13-2.15-2.38-3.88-2.65-6.22-.39-3.49 2-10.84 3.58-12.76A12.48 12.48 0 0 1 192 74.6c2.35-.05 7.27 3 7.93-.62.31-1.72-1.37-6.16-2-7.78a14.92 14.92 0 0 0-1.87-3.27 43.68 43.68 0 0 1 5-2.8c3.94 8.28 2.02 19.93 1.13 31.27Zm-73.9 8.4a33.34 33.34 0 0 0 6.71 15.08c-1 2.8-1.28 8.16-4 9.34-2.23 1-5.15.16-8.4.62a36.93 36.93 0 0 1-2.65-17.58c.44-6.23 2.77-12 4.36-16.64.38 1.43 3.41 4.61 3.89 6.22a22 22 0 0 1 .08 2.95Zm33.3-64.88c-1.43 1.11-5.25 1-5.45 3.58-.35 4.52 5.25 1.36 7.47.62a20.34 20.34 0 0 1 8.56-1.4c5.72.49 12.81 3.57 17.74 5.6 5.69 2.34 10.68 5.38 13.53 9.64-3.64 3-8.26 5.05-12.76 7.31-11 5.53-21.87 10.79-33.6 16.18-2 .9-5.68 2.24-6.38 3.58-.89 1.71-.9 5.48-1.24 7.93-1.4 10-3.14 19.66-3.11 30.65-.73.11-1.27-.6-1.71-.93-6.5-5-12.52-12.38-12-24.74A116.34 116.34 0 0 1 135 74.75c.49-2.32 2.59-7.29-1.25-7.16-2.74.1-3.42 6.72-3.89 9a93.49 93.49 0 0 0-1.4 11.51c-6.74-8.56-5.33-25.42-1.25-35.31a32.56 32.56 0 0 1 9.5-12.14c6.13-4.88 14.43-8.8 24.87-5.73ZM49.25 159.07c-5.64-5.64-10.29-13-9.5-23.34.69-8.88 6.74-12 14-14.94 1.47-.59 3.2-1.26 3.42-2.33.31-1.5-1.05-3-1.71-4.36-2.68-5.32-3.53-18 1.4-21.93 1.67-1.34 4.2-2 6.85-3a57.86 57.86 0 0 0 6.38-3.27c13.13-6.87 25.71-12.34 31.42-26.6 3.64-9.07 5.45-19.75 8.56-30.18 1.45-4.86 3.65-8.76 6.22-13.23s6-10.57 11.67-11.21c7.09-.79 14.57 4.13 17.42 8.41s3.62 10.42 4.36 16c-17.35 5-28.15 16.34-30.33 36.09-.58 5.16-.63 10.87.62 15.4.36 1.31 1.38 2.82 1.4 4.05s-1 3.09-1.56 4.66c-1.63 4.42-3.38 8.8-4.2 14.16a43.77 43.77 0 0 0 1.88 21.55c-8.19.57-15 .33-20.38 3-15.48 7.6-20.34 26.19-26.92 42.94-7.3-2.45-15.2-6.07-21-11.87Zm146.87 201.79a3.42 3.42 0 0 1 .93.31c-.21.51-.41 1-.93 1.24Zm-40.45-12c.36.09.63-.39 1.09-.31 10.71 1.86 23.67 5.11 34.07 7.46.42 4.39 1.59 9.35 0 13.23-1.08 2.61-4.22 4.78-6.53 6.38s-5.55 4.22-8.56 4.36c-2.15.09-4.18-1.26-5.45-2.33-1.79-1.51-3.1-4.14-4.51-6.54-2.74-4.66-5.16-9.58-7.62-14.47-1.16-2.36-3.07-4.96-2.49-7.76Zm150.45-20.54c3.47.37 6.77 2.35 9.33 4.2 3 2.18 6.87 5.45 7 10 .13 4.81-3.56 9.88-6.53 12.6-4.4 4-10.57 5.52-16.81 6.85.82-13.84-3.14-22.89-7.15-31.89 4.84-.4 8.74-2.32 14.16-1.74Z" class="cls-2"></path><path d="M161 98.24c1.7-.48 2.75.92 4.67 1.87s5.42.88 5.44 3.42c0 3.82-5.54 1.8-7.77.62-1.27-.67-3.74-1.65-3.89-3.57a2.08 2.08 0 0 1 1.55-2.34Z" class="cls-2"></path><path d="M105.18 193.91a2.35 2.35 0 0 1-2.33-2.45c0-.81-2.16-4.46-9.59-9-7.79-4.81-17.79-8-20.46-6.65a2.34 2.34 0 0 1-2.13-4.16c6.28-3.21 20.21 3.86 25 6.84 3.63 2.23 12.05 8 11.79 13.23a2.33 2.33 0 0 1-2.28 2.19ZM195.74 176.08a2.33 2.33 0 0 1-1.58-4c2.82-2.59 12.53-10.94 18.53-9.77a2.33 2.33 0 1 1-.89 4.58c-2-.38-7.82 2.49-14.48 8.62a2.32 2.32 0 0 1-1.58.57Z"></path><path d="M218.05 315.21s12 9.45 8.43 23.55a31.36 31.36 0 0 1-15.59 19.71l-55.86-11s-19.62 9.65-30.34 11.36-43.86-1.61-54-12-14.23-26.51-9.8-37.34 19.92-38.9 19.92-38.9l28 9.18a24.83 24.83 0 0 1 13.85-3.89 24.75 24.75 0 0 0 14.48-4.88s6.87 8.35 15.25 7 21.48-5.6 19.29-11.67S156.75 248 156.75 248l4.36-3.42s7.79 6.14 10.74 5 2.86-4.41-3.57-8.86-8.21-7.26-12.61-4.67-24 19.45-24 19.45l-29.88-15.25 22.88-26.76 52.12-.78 38.44 59.76s91.29-33.46 110-19.3 22.77 37.41 10.58 51.82-75.31 28.63-75.31 28.63Z" class="cls-2"></path><path d="M290.62 329.4a85.57 85.57 0 0 1 5.6 16.18c1.73 8.07 1.55 18.83 1.55 18.83l-50.41 3.42-9.56-2.59s12.08-4.91 15.53-15.57c4.18-12.91-1.21-18.77-1.21-18.77l11.27 5.5ZM164.21 77a3.5 3.5 0 0 1 3.5 3.5v4.66a3.5 3.5 0 1 1-7 0v-4.63a3.5 3.5 0 0 1 3.5-3.53ZM184.8 78.94a3.5 3.5 0 0 1 3.5 3.5v4.66a3.5 3.5 0 0 1-7 0v-4.67a3.5 3.5 0 0 1 3.5-3.49Z" class="cls-2"></path><path d="M41.07 302H16.8c-5.58 0-10.11-1.19-10.11 3.11l5.13 50.72a3.11 3.11 0 0 0 3.11 3.11h28a3.11 3.11 0 0 0 3.07-3.1l5.13-50.72c.05-4.31-4.48-3.12-10.06-3.12Z" class="cls-6"></path><path d="M40.53 321.55H16.27c-5.58 0-10.12-.41-10.12 1.08L8 340.14c0 .59 1.67 1.07 3.73 1.07h33.54c2.06 0 3.73-.48 3.73-1.07l1.65-17.51c0-1.49-4.53-1.08-10.12-1.08Z" class="cls-3"></path><path d="M45.27 343.54H11.69c-3.86 0-6.07-1.24-6.07-3.4l-1.79-17.27a3.63 3.63 0 0 1 .88-2.37c1.43-1.41 4-1.36 8.58-1.31h30.24c4.58-.06 7.14-.11 8.58 1.31a3.77 3.77 0 0 1 .9 2.13l-1.66 17.73c-.01 1.94-2.22 3.18-6.08 3.18Zm1.43-3.78a1.82 1.82 0 0 0 0 .38Zm-36.54-1a8.75 8.75 0 0 0 1.53.12h33.58a8.79 8.79 0 0 0 1.53-.12l1.39-14.85c-1.16-.09-3 0-4.61 0h-30.3c-1.58 0-3.45-.05-4.61 0Z"></path><path d="M18.8 299h20.27c4.66 0 8.44.71 8.44-1.85l-1.45-4.45c0-1-1.4-1.85-3.12-1.85h-28c-1.72 0-3.12.83-3.12 1.85l-1.45 4.45c-.02 2.52 3.76 1.85 8.43 1.85Z" class="cls-3"></path><path d="M18.8 299h20.27c4.66 0 8.44.71 8.44-1.85l-1.45-4.45c0-1-1.4-1.85-3.12-1.85h-28c-1.72 0-3.12.83-3.12 1.85l-1.45 4.45c-.02 2.52 3.76 1.85 8.43 1.85Z" style="fill:#f1ebf4;fill-rule:evenodd"></path><path d="M43.57 301.39H16.34c-3.14.11-5.59.17-7.17-1.36A3.9 3.9 0 0 1 8 297.11a2.34 2.34 0 0 1 .11-.72l1.39-4.19c.28-2.15 2.52-3.72 5.42-3.72H43c2.9 0 5.14 1.57 5.42 3.72l1.36 4.19a2.32 2.32 0 0 1 .11.72 3.88 3.88 0 0 1-1.2 2.89c-1.21 1.16-2.95 1.39-5.12 1.39Zm-24.77-4.76h20.27c.9 0 1.78 0 2.59.05a29.33 29.33 0 0 0 3.26 0l-1.07-3.29a1.39 1.39 0 0 0-.9-.24h-28a2.42 2.42 0 0 0-.87.14c0 .09-1.1 3.38-1.1 3.38a31 31 0 0 0 3.25 0c.77-.01 1.67-.04 2.57-.04Z"></path><path d="M14.43 310.62h29c6.67 0 12.09 1.18 12.09-3.11L53.47 300c0-1.71-2-3.1-4.46-3.1H8.86c-2.46 0-4.46 1.39-4.46 3.1l-2.07 7.48c0 4.32 5.42 3.14 12.1 3.14Z" class="cls-3"></path><path d="M49.9 313.1c-.92 0-1.9 0-2.93-.07s-2.3-.08-3.52-.08h-29c-1.23 0-2.42 0-3.53.08-4.12.13-7.38.26-9.4-1.7A5.08 5.08 0 0 1 0 307.51a2.3 2.3 0 0 1 .09-.62l2-7.23c.23-2.87 3.13-5.07 6.79-5.07H49c3.66 0 6.55 2.2 6.79 5.07l2 7.23a2.28 2.28 0 0 1 .09.62 5.08 5.08 0 0 1-1.5 3.82c-1.52 1.46-3.73 1.77-6.48 1.77Zm-35.47-4.82h29c1.28 0 2.52 0 3.69.08 2.07.08 5.51.2 6-.39l-1.92-7.33a2.28 2.28 0 0 1-.09-.62 2.65 2.65 0 0 0-2.13-.77H8.86a2.55 2.55 0 0 0-2.13.81 2 2 0 0 1-.08.58l-1.92 7c.71 1 4 .85 6 .76a54.9 54.9 0 0 1 3.7-.12Z"></path><path d="M131.65 275.51h150.09a7.78 7.78 0 0 1 7.78 7.78v5.29a7.78 7.78 0 0 1-7.78 7.78L179 296Z" class="cls-3"></path><path d="M131.65 275.51h150.09a7.78 7.78 0 0 1 7.78 7.78v5.29a7.78 7.78 0 0 1-7.78 7.78L179 296Z" class="cls-3"></path><path d="M281.74 298.7 179 298.36a2.31 2.31 0 0 1-.92-.19l-47.4-20.52a2.33 2.33 0 0 1 .93-4.48h150.13a10.13 10.13 0 0 1 10.12 10.12v5.29a10.13 10.13 0 0 1-10.12 10.12Zm-102.2-5 102.21.33a5.45 5.45 0 0 0 5.44-5.45v-5.29a5.45 5.45 0 0 0-5.45-5.45H142.92Z"></path><path d="M281.74 298.7 179 298.36a2.31 2.31 0 0 1-.92-.19l-47.4-20.52a2.33 2.33 0 0 1 .93-4.48h150.13a10.13 10.13 0 0 1 10.12 10.12v5.29a10.13 10.13 0 0 1-10.12 10.12Zm-102.2-5 102.21.33a5.45 5.45 0 0 0 5.44-5.45v-5.29a5.45 5.45 0 0 0-5.45-5.45H142.92Z"></path><path d="m324.58 194.18-110.47.17a11.28 11.28 0 0 0-9.79 6.61l-28.84 74c-1.42 3.64 3.53 10.72 7.52 10.71l110.44-.17a11.29 11.29 0 0 0 9.79-6.61l28.83-74.07c1.43-3.61-3.49-10.65-7.48-10.64Z" class="cls-3"></path><path d="M183 288c-2.68 0-5.6-1.92-7.79-5.13s-2.82-6.37-1.89-8.76l28.84-74a13.6 13.6 0 0 1 12-8.1l110.47-.17c2.69 0 5.6 1.91 7.78 5.1s2.82 6.37 1.88 8.76l-28.83 74.07a13.6 13.6 0 0 1-12 8.1L183 288Zm141.59-91.54-110.47.17a8.93 8.93 0 0 0-7.62 5.12l-28.84 74c-.29.75.11 2.55 1.4 4.43s3.06 3.1 3.94 3.1l110.44-.17a8.94 8.94 0 0 0 7.62-5.12L329.9 204c.29-.74-.1-2.55-1.39-4.44s-3-3.07-3.92-3.07Z"></path><path d="M262.23 231.57c-5.62 0-11.66 4.41-13.5 9.9s1.23 9.93 6.84 10 11.66-4.42 13.5-9.9-1.23-9.98-6.84-10Z" class="cls-6"></path><path d="M220.66 370c-5.28 0-18.75-3.44-23.86-6.54a4.43 4.43 0 0 1-2.18-3c-.49-2.74 1.65-5.48 4.14-8.67 2-2.57 4.3-5.5 4.71-7.92.38-2.24.59-4.7.81-7.2.77-8.6 1.65-18.35 9.09-21.37 3-1.21 8.45-.43 11.78 2.32 7.74.7 14.25 3.94 18.41 9.18a22.43 22.43 0 0 1 4.35 17.83C245.67 358.1 232.93 370 220.66 370Zm-4-50.61a4.28 4.28 0 0 0-1.51.22c-4.79 1.94-5.5 9.83-6.18 17.46-.24 2.62-.47 5.21-.86 7.54-.6 3.61-3.27 7-5.63 10-1.29 1.65-3.24 4.13-3.22 5 4.39 2.49 16.91 5.69 21.45 5.69 10 0 20.78-10.23 22.64-21.48a17.77 17.77 0 0 0-3.41-14.16c-3.47-4.38-9.11-7-15.88-7.49a2.33 2.33 0 0 1-1.5-.69 9 9 0 0 0-5.93-2.13Z"></path><path d="M202.31 363.8a16.93 16.93 0 0 1-13.31-6.2c-4.32-5.2-5.92-12.86-4.39-21 2.74-14.52 14.77-26.33 26.84-26.33a16.94 16.94 0 0 1 13.26 6.21c4.31 5.2 5.92 12.85 4.38 21-2.68 14.52-14.72 26.32-26.78 26.32Zm9.2-48.86c-9.93 0-19.92 10.1-22.26 22.52-1.27 6.76 0 13 3.39 17.15a12.22 12.22 0 0 0 9.67 4.52c9.93 0 19.92-10.1 22.26-22.53 1.27-6.76 0-13-3.39-17.14a12.2 12.2 0 0 0-9.68-4.51ZM238.73 365.43a2.34 2.34 0 0 1 0-4.67c6.43 0 13-7.18 14.43-15.68.78-4.75-.17-9.26-2.54-12.06a7.79 7.79 0 0 0-6.08-2.85 2.33 2.33 0 0 1 0-4.67 12.47 12.47 0 0 1 9.63 4.51c3.3 3.89 4.61 9.66 3.59 15.84-1.76 10.97-10.16 19.58-19.03 19.58Z"></path><path d="M168.06 259.47s3.51 7 3.39 7.34-.2 2.94-1 3.45-2.25 2.07-3.8 2.68-1.81 1.86-5 2.57-8.68 3-9.28 3a18.47 18.47 0 0 1-5.53-2.59 45.3 45.3 0 0 0-6-4.14c-1.55-.86-5-2.25-6.13-3.2s-3.17-5-3-5.35 9.83-10.87 9.83-10.87l13.81-5.87Z" class="cls-3"></path><path d="M171.38 252.11c2.83.16 5.92-2.2 5.92-5 0-2-1.82-3.62-3-4.82a45.8 45.8 0 0 0-4-3.89c-2.82-2.33-6.2-5.33-10.74-5.13-2.91.13-5.93 2.2-8.24 3.74-7.46 5-13.72 10.86-20.07 16.18-3.5-1.86-7.07-3.63-10.67-5.38V253l4.29 2.1c1.9.94 5.15 3.27 7.15 3.11s4.85-3.67 6.69-5.29a143.6 143.6 0 0 1 13.38-10.73c2.2-1.56 5.4-4.21 7.94-4.2 2.7 0 5.41 2.47 7.15 3.89.92.74 1.88 1.72 2.8 2.64s2.44 1.71 2 3a21.15 21.15 0 0 1-5.45-2.49c-1.5-.86-3.47-2.77-5.29-2.8a16.64 16.64 0 0 0-5.29 1.56c-1.18.55-2.33 1.6-2.33 2.8 0 1.61 2.6 3.66 4 5a71.33 71.33 0 0 1 9 9.18c1.82 2.34 4.89 6.15 1.56 8.09-3.39-4.85-7.33-10.55-12.14-14.78-1.06-.93-3.44-3.87-5.75-3.27a2.38 2.38 0 0 0-1.4 1.72c-.31 2.21 2.7 3.94 3.74 4.82 4.92 4.22 8.36 9.06 11.67 14.31a27.48 27.48 0 0 1-3.74 1.72c-4.25-4.19-9.37-8.93-14.16-13.38-1.1-1-3.22-4.18-5.6-3.73a2.51 2.51 0 0 0-1.72 2c-.12 1.91 2.72 3.88 3.58 4.67 1.69 1.55 3.07 2.81 4.36 4 3 2.85 6.25 5.26 8.24 8.09-7.36 1-10.55-4.51-15.56-6.84-1.85-.59-7.54-5-8.09-.78-.25 1.92 1.32 2.12 1.72 3.11-1.8.22-3.23 2.56-5.45 2.8-1.64.18-3.45-.61-5.13-.63-.79 0-1.54 0-2.27.11v4.68a31.86 31.86 0 0 1 9.88 1.13c6.75 1.64 12.86 4.39 18.92 7.12h11.44c-8.48-3.76-17.05-7.41-25.85-10.86 1.29-.57 2.26-1.47 3.74-1.86 5.14 3.51 10.55 8.24 18.67 6.22 6.62-1.65 13.78-4.76 16.34-10s-2.66-10.5-5.45-13.7c-2.09-2.38-4.14-4.37-6.22-6.37-.63-.61-1.88-1.39-1.56-2 3.41.32 6.81 4.71 10.99 4.95Z" class="cls-2"></path></svg> 