<?xml version="1.0" encoding="UTF-8"?> <svg xmlns="http://www.w3.org/2000/svg" xmlns:v="https://vecta.io/nano" viewBox="0 0 799.01 485.17"><style>.Q{fill:#fff}.R{fill-rule:evenodd}.S{clip-rule:evenodd}.T{fill:#fece26}</style><defs><clipPath id="A" transform="translate(0 15.83)"><path d="M125.55 330.46c9.31-1.37 10.75-16.69 12.39-26.27s8.91-8.05 19.3-14.37 11.53-28.78 8-40.14-15.48-14.23-27.37-9.67-8.9 23.68-8.71 30.34-12.68 11.25-26.53 25.09 2.4 35 6.77 37.59 6.83-1.2 16.15-2.57z" fill="none" class="S"></path></clipPath><clipPath id="B" transform="translate(0 15.83)"><path d="M78.9 321c.06-10.6-2.74-11.93-5.66-17.58s-.83-16.35-4.54-24.94-12.91-11.25-18.14-16.07-8.18-15-15.87-20.41-21.26 1.09-29.11 14.17 3 26.61 7.37 31.75 13.88 5.59 20 10 .81 18.64 10 31.56 23 16 26.65 16.07 9.25-13.94 9.3-24.55z" class="Q S"></path></clipPath><clipPath id="C" transform="translate(0 15.83)"><path d="M68.78 247.95c-3.51-17.77 6.73-29.43 11.34-39.88s1.28-23.35-1.33-29.67-7.57-20-2.64-46.87 31.53-42.82 39.5-44.41 19.38 15.54 24.76 22.11-3.76 18.1-8.32 28.35 6.16 24.62 8.88 42.52-10.23 37.35-18.33 46.11-10.13 13.22-10.4 25.7-4.56 22.92-12.09 29.86S90 278.59 86 274.78s-13.71-9.07-17.22-26.83z" class="Q S"></path></clipPath><clipPath id="D" transform="translate(0 15.83)"><path d="M556.26 24.33l16.79 106.38c1.88 11.87-6.75 21.49-19.28 21.49H269.58c-12.52 0-24.19-9.62-26.07-21.49L226.72 24.33C224.84 12.46 233.48 2.84 246 2.84h284.19c12.53 0 24.19 9.62 26.07 21.49z" fill="none" class="S"></path></clipPath><clipPath id="E" transform="translate(0 15.83)"><path d="M764.44 140l31.49 199.25c1.87 11.86-6.76 21.48-19.29 21.48H492.39c-12.53 0-24.19-9.62-26.07-21.48L434.83 140c-1.88-11.86 6.76-21.48 19.28-21.48h284.25c12.53-.01 24.2 9.6 26.08 21.48z" fill="none" class="S"></path></clipPath></defs><path d="M125.55 346.29c9.31-1.37 10.75-16.69 12.39-26.27s8.91-8.05 19.3-14.37 11.53-28.78 8-40.14-15.48-14.23-27.37-9.67-8.9 23.68-8.71 30.34-9.35 9.57-23.2 23.41-4.61 33.75 3.45 39.27c4.2 2.88 6.82-1.2 16.14-2.57z" class="Q R"></path><g clip-path="url(#A)" class="R T"><path d="M131.78 353.69c9.32-1.37 10.76-16.7 12.4-26.29s8.91-8.06 19.31-14.38 11.54-28.8 8-40.18-15.49-14.24-27.39-9.68-8.9 23.7-8.71 30.37-12.66 11.3-26.53 25.11 2.41 35 6.78 37.62 6.82-1.2 16.14-2.57z"></path></g><g class="R"><path d="M170.42 290.74q.31-2.44.61-4.87c.52-9.84-1.56-19.74-6.52-25.75s-15.62-10.63-25.14-7.68a15.6 15.6 0 0 0-8.36 6 23.27 23.27 0 0 0-4.49 10.11c-1 6.55 1.79 15.36-2 21.08-3.25 4.86-9.49 6.43-14 10.26-6.13 5.17-12.68 17.67-13.16 29.41a36.28 36.28 0 0 0 1.18 8.91c.6 2.82.69 6.92 4.11 6.79s2-5 1.61-6.85a32.07 32.07 0 0 1-1.25-8.34c.33-9.08 5.4-19.64 9.23-23.8 6.27-6.82 17-7.86 19.5-19.1 1.46-6.6-.67-12.29.52-18 .94-4.51 4.51-9.48 7.82-10.84 5.4-2.23 12.63-.37 16.64 2.44 4.78 3.35 7.54 9.49 8.41 16.65s.23 16.3-3.68 22c-3.76 5.5-12.84 6.09-18 9.77-3.83 2.75-6.29 7.26-7.7 12.95-.81 3.28-1.23 8.12-2.72 11.28-3.5 7.39-11.59 12.56-21.13 12.24 2.2-21.58 12.5-29.32 24.48-37.72 5.38-3.77 11.64-6.53 12.8-15.74.48-3.79 1.35-13.7-2.85-13.88-3.37-.14-2.72 4.26-2.64 7.48s-.07 7.61-1.23 9.94c-1.74 3.5-6.8 5.7-9.93 7.91-10.45 7.37-20.18 14.9-24.2 30.9-2.5 10-3.48 23.76-5.23 34.58-.93 5.72-1.47 11.88-2.2 17.82-.52 4.2-2.89 14.67 1.38 15 3.92.32 3.32-6.83 3.79-10.58l5.34-40.09a27.45 27.45 0 0 0 16.33-4.26c4.08-2.65 8.37-6.72 10.58-11.64 2.84-6.29 2.51-15.68 6.89-20.28 3.65-3.84 10.91-4.83 15.62-7.78 5.48-3.46 7.7-8.32 9.59-16.32z"></path><path d="M78.9 336.83c.06-10.6-2.74-11.93-5.66-17.58s-.83-16.35-4.54-24.94-12.91-11.25-18.14-16.07-8.18-15-15.87-20.41S13.43 258.92 5.58 272s3 26.61 7.37 31.75 13.88 5.59 20 10 .81 18.64 10 31.56 23 16 26.65 16.07 9.25-13.94 9.3-24.55z" class="Q"></path></g><g clip-path="url(#B)" class="R T"><path d="M85.94 331.28c.06-10.6-2.75-11.93-5.68-17.57s-.83-16.34-4.54-24.94-12.92-11.26-18.16-16.07-8.19-15-15.89-20.41-21.28 1.09-29.13 14.17 3 26.61 7.38 31.75 13.89 5.59 20 10 .82 18.63 10 31.56S73 355.83 76.67 355.83s9.21-14 9.27-24.55z"></path></g><g class="R"><path d="M81.71 340.26v-6.61c-1.31-7.73-5.06-11.6-7-17.76-1.56-5-1-10-1.7-14.74-1.4-9.56-7.17-14.68-13.61-19.46-3.1-2.3-6.82-4.2-9.26-7.37-3.31-4.31-3.92-9.45-7.37-13-6.57-6.83-18.77-9.95-28-4.53-4.41 2.59-8.2 6.9-11.15 11.71a22.71 22.71 0 0 0-2.78 18.33c2.29 8 8.26 17.64 14.74 21.73 4.62 2.92 14.5 3.45 17.2 7.93 4.44 7.4 2 20.55 6 28.54 2.07 4 6.59 7.71 10.58 10.2 5.75 3.6 11.65 6.36 19.66 7.18.69 20.82.34 41.94-.57 62.55-.13 3-.36 6.18 3 5.86 2-.19 2.29-1.9 2.46-5.1.38-7.54.75-16.1.75-22.3 0-10.37.79-20.09.38-30.43-.43-10.71-.33-19.41-4-26.65-3.5-7-9.28-11.66-12.47-18.33-3.05-6.38-2-16-4.35-22.3-1.94-5.1-5.88-8.46-10-11.15-2.12-1.38-4.9-2.36-7.37-4.54a25 25 0 0 1-4.16-5.67c-1.13-1.87-2.17-4.73-4.73-4.53-5.16.4-1.4 6.33.38 9.07a24.48 24.48 0 0 0 4.66 5.65c5.37 4.4 12.64 6.14 15.49 11.53 2.4 4.53 1.85 11.2 2.65 15.87 2.59 15.15 15 20 17.57 34.58-6-.48-10-2.45-14.36-4.91-3.86-2.16-8.41-5.32-10.39-9.07-4.21-8-1.29-20.67-5.48-28.34a14.6 14.6 0 0 0-5.1-5.29c-4.09-2.46-10.46-2.91-14.36-5.29-3-1.84-5.88-5.8-7.75-8.69-2.25-3.49-4.28-7-5.1-11.34-1.61-8.47 4.48-15.48 8.88-19.27a19.45 19.45 0 0 1 4.91-3.4c7.22-2.89 15.32.94 18.71 4.72 3 3.34 3.72 8.28 6.24 11.72 5.25 7.17 15.55 9.79 20.22 17.77 3 5.19 2.08 14.29 4 21.35 1.72 6.46 5.72 11 6.8 16.25.81 3.95.28 8-.57 12.66-.42 2.31-1.83 6.84 1.51 7.18 5 .49 3.49-8.48 4.84-12.31z"></path><path d="M68.78 263.78c-3.51-17.77 6.73-29.43 11.34-39.88s1.28-23.35-1.33-29.67-7.57-20-2.64-46.87 31.53-42.82 39.5-44.41 19.38 15.54 24.76 22.11-3.76 18.1-8.32 28.35 6.16 24.62 8.88 42.52-10.23 37.35-18.33 46.11-10.13 13.22-10.4 25.7-4.56 22.92-12.09 29.86S90 294.42 86 290.61s-13.71-9.07-17.22-26.83z" class="Q"></path></g><g clip-path="url(#C)" class="R T"><path d="M77.39 268.66c-3.52-17.77 6.73-29.43 11.35-39.83s1.29-23.34-1.32-29.67-7.59-20-2.65-46.86 31.57-42.86 39.55-44.47 19.41 15.54 24.79 22.11-3.77 18.1-8.33 28.34 6.17 24.62 8.89 42.52-10.24 37.34-18.35 46.11-10.14 13.22-10.41 25.7-4.56 22.92-12.11 29.86-10.18-3.19-14.19-7-13.71-9.05-17.22-26.81z"></path></g><path d="M143.93 137.47v-3.21a51.94 51.94 0 0 0-8.13-18.52c-3.33-5.06-7.18-11.13-12.85-13.79-9.53-4.48-20 4.66-25.32 9.26-6.72 5.76-13 11.93-17.2 19.84-6.15 11.59-10.2 27.23-10.2 45.16 0 16.94 12.57 28.16 8.31 45.16-2.53 10.1-8.09 15.68-11.72 25.32-3.72 9.89-.94 23.74 2.27 31.18 3.31 7.65 8.61 12.9 14.55 17.76 1.1.9 2 1.16 2.45 2.27.94 2.18.73 5.45 1.13 8.32 2.81 19.79 5.11 39 5.11 61.41s-1.15 41.88-2.84 63.49c-.27 3.4-.34 6.78 2.45 6.8 2.47 0 3-3 3.21-6.23 1.5-21.62 2.85-41.45 2.85-63.68 0-26.32-3.17-47.75-6-69.92-1.47-11.33-3.41-23.9-2.84-34.77.94-17.64 9.23-28.91 15.5-41.38A37.93 37.93 0 0 0 109 207.2c.45-6.12-.88-11.08-2.45-16.06-1.48-4.69-3.62-9.6-3.78-15.31-.15-5.17 1.11-10.27 2.27-15.12.71-3 4.68-11.86.57-12.85-2.56-.62-3.35 1.4-4.35 4.91-2 6.85-4.32 14.82-4 23.62.51 12.58 7.14 18.68 6.24 31-.58 8-5 13.91-8.32 20.22-5.75 11-11.67 22-11.71 38.17A197.76 197.76 0 0 0 85 288.83c-.63.23-1.17-.64-1.51-.94a35.4 35.4 0 0 1-9.83-13.61c-2.44-6.18-4.34-15.38-2.27-23.24 1.83-6.92 5.8-12.14 8.69-18.14 2.79-5.78 5.4-11.8 4.91-20.79-.43-8-3.42-13.93-5.67-20a50.9 50.9 0 0 1-3.4-21.92c.73-15.36 4.79-29.36 11.51-39.9 3.27-5.12 7.44-9.16 12.28-13.42 4.38-3.84 9.63-9 15.49-10.2a11.2 11.2 0 0 1 3-.19c5.43.64 10.12 7.79 13 12.47a63.65 63.65 0 0 1 4.35 7.93c1.32 2.92 2.85 6.21 2.64 9.83-.23 4-3.65 7.46-5.48 10.2-2 3-4 6.53-4.16 11.34-.17 5.22 1.58 10.33 3 14.74 1.51 4.62 3.27 9.11 4.53 13.42 3 10 1.58 21.87-1.51 30.8-4.3 12.4-14.31 22.12-21.16 32.5-2.45 3.71-5.07 7.77-5.48 12.47-.58 6.61 1.62 12.55.38 17.76-1.62 6.84-6.48 12.34-10.59 17.2-1.51 1.79-3.07 4.6-1.32 6 2.29 1.89 4.81-1 6.42-3s3-4.05 4.16-5.67c2.24-3.14 5.23-7.56 6.62-12.85 1.5-5.77-.59-12.08-.19-18 .42-6.29 4.36-10.58 7.37-14.74 7.67-10.61 15.85-18.84 20.22-32.88 2.75-8.85 3.31-21.56.57-31-1.2-4.14-2.8-8.56-4.35-13.23-1.4-4.23-3.69-9.56-3-14.74 1.08-7.75 9.02-11.46 9.71-19.56z" class="R"></path><path d="M55.94 400.83l6.45 49.58c.63 4.82 4.13 8.48 7.85 8.4l35.21.48c3.64-.08 7.1-3.92 7.75-8.69l6.6-50.13c1.06-8-2.09-14.79-7.14-14.78l-49.23.14c-5.21 0-8.54 7-7.49 15z" class="Q"></path><path d="M70.3 461.69c-5.21.16-9.91-4.64-10.73-10.86l-6.45-49.58c-.78-6 .54-11.64 3.55-15.06a8.85 8.85 0 0 1 6.75-3.22l49.23-.07a8.53 8.53 0 0 1 6.53 3.11c2.94 3.35 4.21 8.91 3.42 14.88l-6.6 50.13c-.83 6.13-5.44 11-10.6 11.15zm42.35-73.13l-49.22.07a3.26 3.26 0 0 0-2.5 1.29c-1.88 2.15-2.75 6.31-2.19 10.59l6.45 49.58c.48 3.6 2.9 6 5.08 5.93l35.1.48c2 0 4.52-2.62 5-6.23l6.63-50.14c.57-4.24-.24-8.32-2.06-10.39a3 3 0 0 0-2.27-1.18z"></path><path d="M46.37 383.83l-.63 2.68c-1.29 5.52 1.72 10.24 6.8 10.24h70.47c5.18 0 8.29-4.78 7-10.36l-.62-2.7c-1.18-5.1-5.8-9-10.39-9l-62.38.2c-4.51.01-9.08 3.94-10.25 8.94z" class="Q R"></path><path d="M44.91 395.99A11.8 11.8 0 0 1 43 385.88l.63-2.68c1.45-6.24 7.16-11.14 13-11.16l62.37-.21c5.92 0 11.68 4.91 13.13 11.2l.62 2.7a11.88 11.88 0 0 1-2 10.15 9.75 9.75 0 0 1-7.79 3.68H52.49a9.52 9.52 0 0 1-7.58-3.57zM119 377.52l-62.38.2c-3.27 0-6.63 3.05-7.5 6.78l-.63 2.68a6.22 6.22 0 0 0 .84 5.3 3.93 3.93 0 0 0 3.2 1.46H123a4.12 4.12 0 0 0 3.36-1.53 6.28 6.28 0 0 0 .88-5.35l-.62-2.7c-.87-3.76-4.27-6.8-7.61-6.8z"></path><g class="R"><path d="M438.52 415.83l-39.31-72.57s18.2-26.39 19.09-40.26-15.52-31.77-32.69-39.69-28.54-37-28.54-37 8.74-8.42 10-18.9-7.07-19.23-15.3-24.38-17.77-.95-17.77-.95-3-12-15.31-15.69c-8.11-2.45-12.89 4-17.58 5.48s-10.5-2.84-19.09-4.91-28.21 4.8-42.72 16.63-23.7 32.41-19.27 50.46-8.46 24.78-17.37 27.78-26.28 9.52-33.83 18.14 1.32 32.13 1.32 32.13-14.9 6.77-18.9 16.63 4.75 25.15 4.75 25.15-4 7.25-16.25 19.47-25.42 32-27 55.18 33.5 28.72 33.5 28.72H411.5z" class="Q"></path><path d="M419.62 300.19c-1.33-16.19-27-33-38.74-38s-22.68-33.45-22.68-33.45 7-9.45 9.64-16.63-.4-12.94-10.58-24.38-21.36-3.78-21.36-3.78-3.12-9.94-12.09-14.36-15.07-.05-20.6 2.46-12.36-3.63-24.19-4-23.95 3.14-43.85 19.66-14.35 38.12-13.61 51.25-5.77 17.09-18.52 22.49-26.95 9.7-32.89 18.71.19 33.83.19 33.83-9.91-.35-16.63 11.91 4.73 27.21 4.73 27.21 32.74-34.44 42.71-43.47 14.64-10 30.8-13.42 45.36 5.86 45.36 5.86l2.69-26.46-5.67-4.53s-5.36-.75-13-1.33-7.41-4.46-8.13-12.09 11.91-6 11.91-6l-5.48-16.63 4.16-.37s6.9-4.53 16.82-17 27.54-18.83 29.11-17 15.12 15.31 15.12 15.31l2.16 14.1a41.25 41.25 0 0 1 9.64 6.61c5.67 4.93 9.26 12.66 9.26 12.66s3-3.62 6.62-4.35 4.91 10.4 4.91 10.4a5.08 5.08 0 0 1 5.48 0c2.87 1.83 4.39 20.53 5.1 24.57s-3.5 4.9-9.64 6.61-14.93 8.5-14.93 8.5l13.8 19.09s12.16-4.91 25.13 4.73c6.21 4.61 20.79 23.43 20.79 23.43a51.58 51.58 0 0 0 16.46-42.14z"></path><path d="M226.53 346.43c2.31-1.79 16-7.34 21.92-6.8s15.12 10.58 15.12 10.58-4.59-23.55-8.88-33.45-15.87-18.52-15.87-18.52a110.6 110.6 0 0 0-27.21 4.91c-13.13 4.4-49 45.55-49 45.55s17.13-2.25 31.94 13.8a178.84 178.84 0 0 1 12.66 15.69s17.01-29.96 19.32-31.76zm98.07-1.99l-44-9.07-8.69-23.81 37 8.32c2.08.55 15.69 24.56 15.69 24.56z" fill="#f98012"></path><path d="M163.16 292.75c.64-7 3.82-12.3 7.37-16.63 3.89-4.76 8.55-6.92 14.55-9.64a70.18 70.18 0 0 1 8.31-3.59c8.83-2.74 20.31-4.87 23.81-12.47 2.91-6.29-.34-16-1.13-22.3-.9-7.17-.45-13 1.7-18.89a59 59 0 0 1 18-25.7 74.89 74.89 0 0 1 28.34-15.31c6.28-1.72 11.53-2.91 18.9-2.08a70.77 70.77 0 0 1 9.26 1.7c2.77.69 5.85 1.95 9.26 1.7 5.76-.42 9.23-5.37 16.06-4.16 8.34 1.48 16.73 7.87 18.7 15.68a21.19 21.19 0 0 1 24.71 6.63c4.23 5.33 8.16 12.38 7.94 19.65-.27 8.74-5.87 14.64-9.26 21.16 3 5.08 5.86 10.28 9.07 15.31 3.06 4.78 6.22 10.09 10.58 13.79 4.68 4 10.58 5.69 15.69 8.69s9.06 6.92 13 11.34c7.52 8.37 14.84 19.3 11.71 35.15-2.72 13.79-8.61 23.05-16.06 32.69 9.95 15.51 18.89 30.71 28.34 46.11 3.13 5.1 6.64 10.24 9.26 15.68 3.57 7.43 7.17 16.27 6.42 25.89a27.47 27.47 0 0 1-11.91 20.41 27.84 27.84 0 0 1-11.15 4.91c-4.23.64-10.5-.28-14.92-.95s-8.62-1.57-13.61-2.65c-3-.65-11.45-1.21-11.15-5.1.27-3.55 5.63-1.87 7.94-1.32 3.83.91 6.09 1.37 9.63 2.08 7.4 1.47 13.65 3.25 20.79 2.46.41 0 1.58-.29 1.89-.38 11.76-3.22 19.31-14.65 15.87-29.67-1.95-8.49-5.28-13.45-9.83-19.09l-18-21.54c-24.64-28.48-48.98-55.78-74.34-83.13-1.5 2.06-6.19 2.82-6.42-.57-.21-2.89 5.57-5.65 7.94-7.18 3.65-2.37 7.05-4.16 9.07-5.86-1.53.44-3.79 1.92-5.67 1.7-1.46-.17-1.56-1.05-2.65-1.89-.75 1-3.8 1.48-4.91.19-3.1-3.59 3.54-5.58 6-7s5.89-3.34 6-5.48c.26-3.48-4-7.16-5.67-9.45-2.32-3.21-3.32-6.8-6.62-8.5-1.48 4.59.26 6.89 1.89 10.21.88 1.77 2.75 3.84 2.27 6-.39 1.82-5.16 3.46-7.94 4.73-8.49 3.89-18.63 7.68-25.13 13.41-3.66 3.22-5.36 9.79-2.84 16.06 1.18 2.94 3.85 6.33 6 9.45l38.36 54.61c1.25 1.74 6.35 7 5.67 9.83a2.73 2.73 0 0 1-2.64 1.89c-1.92 0-3.11-2.32-4.16-3.78l-23.44-32.31c-11.64-1.74-22.29-4-33.82-6.23-2.38-.45-9.18-1.24-11-2.46-1.45-1-2.46-4.47-3.41-6.61l-3-7c-2.56-5.62-5-12.63-9.07-16.25-1.78-1.6-5.76-4.72-7.75-5.48-3.55-1.36-7.92-.87-12.09-1.51 5.16 6.24 12 12.1 15.49 21s4.88 19.38 5.67 30.8c4.55 3.56 8.63 19.37-1.13 19.65 4.53 1.15 9.8 1.33 11.52 4.91 2 4.21-.83 9.87-3.4 12.09-4.56 3.95-14.87 5.47-20.6 7.75-3.47 4.9-8 8.74-14.92 10.2-6.29 6.94-11.11 15.35-24 15.68-6.81 7.47-13.37 14.54-21.35 20.6s-17.41 10.14-28.73 13.23c-11.86 3.24-24.58 4.4-35.15-.76-9-4.38-17-12.15-17.77-24.19-.64-9.66 2-17.9 4.73-25.13a68.56 68.56 0 0 1 11.15-18.9c9.08-11.48 18.45-21.64 27.59-32.5-3.33-7.39-8.22-16.32-4.91-25.51 3-8.32 8.91-13 17.76-15.49-1.17-6.92-3.34-12.93-2.66-20.38zm-6.05 57.08c7.25-7.13 14.08-15.21 21.73-22.86 7.3-7.3 13.94-16.22 22.48-21.92 8.75-5.83 20.54-9.61 33.83-10.58 14.13-1 26.59 1.79 38.55 5.1.63-6.74.86-13.88 1.51-20.6a38.57 38.57 0 0 0-3.4-4.34c-11.33 2.84-21.22-2.79-23-11-1.61-7.18 4-13.46 11.15-13.6-.89-4.55-6-9.75-4.54-14.74.81-2.82 3.73-2.5 6.62-4 1.63-.83 3.22-3 4.91-4.73 7.55-7.55 15.64-17.1 25.51-22.48 1.8-1 4.09-2.18 6.42-3.21 2.06-.9 4.76-2.39 6.8-2.64 2.64-.34 7 1.36 8.88 2.64 3.2 2.14 6.17 6.56 8.69 10 1.32 1.81 4.14 6.17 0 6.8-2 .31-4.28-1.38-5.67-2.08-2.21-1.11-4.24-2.64-7-2.65a10 10 0 0 0-7.18 3.4c-4.86 5.6-1.78 16.81 3.78 19.65a16.59 16.59 0 0 0 6.8 1.32c2.76.12 6.3-.44 6.8 2.27.34 1.84-.89 4.23-1.51 6.43-.75 2.64-1.46 4.49-3.41 4.53-4.19.1-2.44-4.93-1.7-7.75-11.46.65-18.75-8-18.89-18.33s6.84-17.94 18-16.82c.29-.56-1.29-1.92-2.27-2.46-3.95-2.18-6.51-.69-10.58 1.13-5.85 2.62-12.34 6.53-15.69 11 1.88 0 2.92 1 3 2.46.33 4.43-5 2.26-8.69 3.21-2 .52-5.55 5-7.19 6.61-3.64 3.64-5.45 6.81-10.77 7.75 1 4.08 2.92 7.53 4.72 11.34.6 1.26 1.43 2.73 1.33 4-.33 4-6.9 2-10 3.59a5.77 5.77 0 0 0-2.84 5.86c.37 3 4.76 6.95 7.94 7.37a31 31 0 0 0 6-.19c1.92-.16 4.21-.71 5.67-.38s2.75 2.42 3.77 3.78c1.18 1.57 2.72 3.26 3 4.53.45 1.84-.2 4.61-.38 7.37l-.94 15.31c-.19 2.47 0 5.13-2.08 6-3.18.09-5.14-1-7.56-1.7.73 1.61 2.46 3.84 3.4 5.86 9.69 2.15 18.94 4.75 30.23 5.29.18-1-1-2.23-1.7-3.4-2.28-3.65-4.67-8.2-4.16-14.93a17.68 17.68 0 0 1 2.08-7c.86-1.62 2.33-2.9 3-4.35a41.36 41.36 0 0 1-10.39-2.65c-2.49-.95-7.7-1.81-7.94-4.91-.39-5.17 5.28-2.09 7.56-1.13a44 44 0 0 0 11.34 3c2 .31 4.37 1.16 6 .95s3.68-2.09 5.86-3.21c6.25-3.23 12.73-5.63 18.52-8.5-3.2-4-6.24-16.37-.19-19.46 2.17-1.11 6.1-.32 7.56 1.7-2.31-3.88-3.48-8.83-7-12.47a32.13 32.13 0 0 0-5.1-3.78c-1.68-1.1-4.38-2.33-4.53-4.16a2.87 2.87 0 0 1 2.08-3c2.47-.43 4.69 2 6.23 3 4.67 3.13 9 7.59 11 13a9.28 9.28 0 0 1 13.6 6.61c6.61-1.24 8.11 7.3 9.64 11.91 2.28 6.91 5.79 17.93-.57 22.3-3.44 2.37-8.17 2.69-12.09 4.53s-6.77 4.59-10.2 6.24a76.44 76.44 0 0 0 5.48 6.43c1.66 1.85 3.86 5.23 5.85 6 2.22.9 6 .88 8.32 1.32 7.94 1.52 14.83 4.13 20.41 8.5 7.42 5.82 10.84 13.92 16.44 22.11 7-9.09 13.26-19.11 14.37-32.69 1.18-14.57-8.09-23.4-15.69-31-4.16-4.17-9.09-6.57-14.55-9.07-10.87-5-16.51-13.74-22.86-24-1.38-2.23-2.9-4.83-4.35-7.37-1.2-2.12-3.79-5.61-3.77-7.94 0-1.46 1.42-3.17 2.45-4.72 3-4.56 8.26-11.36 7-19.09a30.31 30.31 0 0 0-8.12-15.3c-3.91-3.81-11.24-4.74-17.2-2.65-1.68.59-3 1.52-4.34 1.32-3.37-.49-2.59-6.25-3.78-8.5-1.5-2.83-8.81-7.86-12.85-8.31-3.72-.42-6.21 1.54-8.88 2.64a18.31 18.31 0 0 1-7 1.7c-8.62.14-14.23-4.29-23.43-3.78a62.6 62.6 0 0 0-25.89 7.75 66.25 66.25 0 0 0-18.7 14.93c-4.91 5.61-9.94 13.74-11.34 22.3-1.64 10 3 19.15 2.27 30.42-1 14.87-16.63 17.37-29.86 21.92-2.82 1-5.9 2.61-9.07 4-8.42 3.61-16.16 10.95-16.25 22.49a56.24 56.24 0 0 0 1.55 10.76c.66 3.22 2.39 7.76 2.08 9.83s-2.84 2.58-5.48 3.4a33.2 33.2 0 0 0-6.42 2.46c-3.56 2.13-8.34 7.93-7.75 14.74.42 5.16 3.08 8.27 4.53 13.57zm190.48-101.3c-1.33 2.2-.61 4.86-.19 7a36.72 36.72 0 0 0 1.51 6.8 31 31 0 0 0 2.45 3.78c1.77 2.94 4.36 9.57.19 12.47 1.78-.28 7.17-3.06 7.56-5.48.28-1.73-1.14-5.13-1.89-7.18-1.62-4.45-3.27-8.58-5.1-13-.85-2.09-1.82-4.72-4.53-4.39zm16.63 27.21a16.61 16.61 0 0 1-6.24 6.24c-.9.6-1.72.82-.38.57 2.75-.52 8.33-2.32 6.62-6.81zm-128.69 24.19c-17.92 1.19-30.2 7.54-39.68 17.39-9.29 9.64-18.85 19.23-27.4 29.1 9.51.4 15.69 5.49 21.54 9.83a69.3 69.3 0 0 1 15.31 16.06l16.44-27.78c2.89-1.46 7.23-2.47 11.71-3.59 5.62-1.4 12-4.46 17.58-2.27a23.28 23.28 0 0 1 6.42 4.54c.47.43.9 1.67 1.7 1.13-1.8-10.12-2.92-19.13-7.37-26.27a63 63 0 0 0-7.37-9.45 79.62 79.62 0 0 0-8.88-8.69zm125.85 14.9c-.33.26.63 1.33 1.14 1.89l53.29 59.9c.21.25 1.73 2.09 1.32 1.14l-24-38.93c-2.75-4.26-5.26-8.86-8.31-12.47-5.42-6.38-13.9-9.71-23.44-11.53zm-85 1.7c1.77 4.78 4.54 10.2 6.62 15.3l37 7.18-12.09-17.57a152.66 152.66 0 0 1-31.56-4.88zm-74.48 61.45c-4.29-8.22-11.6-14.8-19.46-20.22-4.17-2.87-7-5.14-13.23-5.67-1.8-.16-4.18-.5-5.48-.19s-3 2.54-4.16 3.78c-11.34 12.38-22 24.37-32.12 37.79a47.41 47.41 0 0 0-6 9.45c-3 7-6.2 15.4-6.23 24.75a21.73 21.73 0 0 0 7.94 17.57 31.07 31.07 0 0 0 17.76 7.75c8.7.63 16.27-1.35 23.05-3.4 6.58-2 13.53-4.62 18.71-7.75 7.78-4.71 14.94-11.67 21.16-18.52 1.69-1.86 4-5.85 6.23-6.8 1.69-.71 3.89-.44 5.67-.76 6.44-1.15 9.69-4.77 12.66-9.07-2.8-.22-3.75-2.3-5.48-3.59 0 3.44-5.58 4.43-6 .94-.24-1.75 1.1-3.17 2.27-5.67.78-1.66 1.33-4 2.46-5.29a13.89 13.89 0 0 1 3.59-2.27c2.19-1.18 6.53-2.74 6.62 1.13.07 3.36-3.79 3.14-5.67 4.91.8 1.72 1.55 3.8 3.21 4.35 3.11 1 9-1 11.91-2.64s4.35-4.23 5.67-6l-21.55-8.5c-1.66-.64-5.63-1.59-5.86-4-.53-5.58 6.87-1.71 9.26-.75l21.16 8.31c1.58-1.13 2.24-3.17 3.21-4.91-7.66-3.27-15.14-6-23.43-9.45-1.81-.74-6.2-2-6.24-4.54-.08-5.55 7.52-1 10 0l22.3 8.88c.63-2.86 2.58-5.85 1.33-8.69-.73-1.66-5.48-3-7.75-3.78-5.84-2.12-10.8-3.81-17-5.67-3-.89-7.18-1.28-7.37-4-.44-6.37 9.35-.31 11.91-.38 1 0 1.6-.88 3-1.14a24.92 24.92 0 0 1 6.8-.38c3.21.62 4.09 5.16 6.24 7a27.57 27.57 0 0 1 6.23 2.65c1.4.83 2.6 3.17 5.1 2.08.71-6.87-3.46-10.82-7.37-14.74-3-3-6.35-7.52-11.34-7-3.11.33-6.56 1.85-10 2.64s-6.77 1.72-9.82 2.64l-21 35.34c-.89 1.47-2.15 4-3.21 4.72-1.62 1.09-5.21 1.65-7.75 2.46l-46.3 14.55c-3.05.94-10.83 4.48-10.2-1.14.24-2.16 3.87-3 6.42-3.78l54.42-16.82c1.3-1.93 2.41-4.16 3.73-6.18zm60.1-1.33a45.46 45.46 0 0 1-5.67 11.72c5.26-1.92 13.93-2.07 14.17-9.64a24.51 24.51 0 0 0-8.5-2.08zm30-120.94c-1.68-.35-3.4.42-3.59 2.08-.49 4.23 9.46 7.15 13.6 7.37 3.31.17 7.36-.17 7.56-3 .27-3.94-4.62-2.45-7.56-2.65-4-.26-6.69-2.4-9.63-3.78-.07-.06-.24.01-.38-.02zm-27.56 2.84c-2.87-.14-6.8-1-7 1.89s3.24 2.49 7 2.65c3 .13 7.77 1.16 7.37-2.46-.31-2.89-4.05-1.92-7.37-2.08z"></path><path d="M259.66 371.06a7.82 7.82 0 0 0 2.7-1.12 10 10 0 0 0 3-3l14.38 18.2s2.65 6.51 1 8.32-7.42-1.52-7.42-1.52l-14.83-16.19a5.88 5.88 0 0 0 1.17-4.69zm-45.98-60.9c.59-.12 1.82 1.18 3.11 2.85a4.11 4.11 0 0 1 4-.22c1.63 1 11.7 13.16 23.07 27.25a6.51 6.51 0 0 0-2.69 1.54c-.41.39-.83.76-1.26 1.12a10.32 10.32 0 0 0-3.88.45 14.42 14.42 0 0 0-4.62 2.79c-11.58-12.81-21.12-23.53-21.45-24.43s.38-2.28 1.54-3.84a10.91 10.91 0 0 1-2.39-2.94c-.23-1.21 2.99-4.23 4.57-4.57z"></path></g><path d="M493.82 447.37v2.84a9.45 9.45 0 0 1-9.45 9.45H253.91a9.45 9.45 0 0 1-9.45-9.45v-2.84a9.45 9.45 0 0 1 9.45-9.45h230.46a9.45 9.45 0 0 1 9.45 9.45z" class="Q"></path><path d="M241.62 450.21v-2.84c.011-6.781 5.509-12.274 12.29-12.28h230.46c6.781.006 12.279 5.499 12.29 12.28v2.84c-.011 6.781-5.509 12.274-12.29 12.28H253.91c-6.781-.006-12.279-5.499-12.29-12.28zm12.29-9.45a6.62 6.62 0 0 0-6.62 6.61v2.84a6.62 6.62 0 0 0 6.62 6.61h230.46a6.62 6.62 0 0 0 6.62-6.61v-2.84a6.62 6.62 0 0 0-6.62-6.61z"></path><path d="M637.1 470.05v2.84a9.45 9.45 0 0 1-9.45 9.45H20.42a9.45 9.45 0 0 1-9.42-9.45v-2.84a9.45 9.45 0 0 1 9.45-9.45h607.2a9.45 9.45 0 0 1 9.45 9.45z" class="Q"></path><path d="M8.13 472.89v-2.84c.011-6.781 5.509-12.274 12.29-12.28h607.23c6.781.006 12.279 5.499 12.29 12.28v2.84c-.011 6.781-5.509 12.274-12.29 12.28H20.42c-6.781-.006-12.279-5.499-12.29-12.28zm12.29-9.45a6.62 6.62 0 0 0-6.62 6.61v2.84a6.62 6.62 0 0 0 6.62 6.61h607.23a6.62 6.62 0 0 0 6.62-6.61v-2.84a6.62 6.62 0 0 0-6.62-6.61z"></path><path d="M534.52 339.57L504 437.47c-1.4 4.47-6.75 8.09-12 8.09H322.67c-5.22 0-12.21-8.54-10.82-13l30.48-98c1.39-4.47 6.75-8.09 12-8.09h169.41c5.26.03 12.16 8.63 10.78 13.1z" class="Q"></path><path d="M311.87 441.61c-2.59-3.52-3.59-7.13-2.72-9.9l30.48-98c1.76-5.66 8.21-10.09 14.68-10.09h169.43c4.24 0 8.31 3.48 10.72 6.74 2.62 3.57 3.63 7.21 2.76 10l-30.48 97.9c-1.77 5.65-8.21 10.08-14.68 10.08H322.67c-4.28.06-8.39-3.45-10.8-6.73zm42.44-112.28c-4 0-8.24 2.79-9.27 6.1l-30.49 98c-.2.65.13 2.48 1.88 4.85 1.88 2.55 4.56 4.48 6.23 4.48h169.4c4 0 8.24-2.79 9.27-6.1l30.48-97.9c.21-.67-.14-2.54-1.92-5s-4.5-4.43-6.15-4.43z"></path><g class="R"><path d="M439.37 392.96c-2 6.94-9.45 12.57-16.59 12.57s-11.31-5.63-9.3-12.57 9.45-12.57 16.6-12.57 11.31 5.63 9.29 12.57zM284.51 229.91l1.76 6.57a4.54 4.54 0 1 1-8.77 2.35l-1.76-6.57a4.54 4.54 0 1 1 8.76-2.35z"></path><g fill="#f98012"><path d="M273.46 252.94c5.74 9.94 3.64 21.55-4.71 25.92s-19.76-.14-25.5-10.09-3.63-21.55 4.75-25.94 19.72.17 25.46 10.11z"></path><path d="M285.22 167.15c-4.34-.18-13.8 1.51-13.8 1.51s-36.23 8.18-36.48 37.8c-.23 27.3 11.52 45 11.52 45l7-3.78s-4.94-7.67-5.67-40.82C247 171.65 303 169.42 303 169.42s-13.44-2.1-17.78-2.27z"></path></g><path d="M313.63 228.29l1.76 6.57a4.54 4.54 0 0 1-8.76 2.35l-1.76-6.57a4.54 4.54 0 0 1 8.76-2.35z"></path></g><path d="M556.26 40.16l16.79 106.38c1.88 11.87-6.75 21.49-19.28 21.49H269.58c-12.52 0-24.19-9.62-26.07-21.49L226.72 40.16c-1.88-11.87 6.76-21.49 19.28-21.49h284.19c12.53 0 24.19 9.62 26.07 21.49z" class="Q"></path><path d="M240.72 146.98L223.92 40.6a20.93 20.93 0 0 1 4.61-17.16c4.19-4.91 10.39-7.61 17.47-7.61h284.19c13.81 0 26.81 10.72 28.87 23.89l16.79 106.38a20.93 20.93 0 0 1-4.6 17.16c-4.19 4.9-10.4 7.61-17.48 7.61H269.58c-13.84-.04-26.79-10.72-28.86-23.89zM246 21.5a16.89 16.89 0 0 0-13.16 5.62 15.36 15.36 0 0 0-3.32 12.6l16.8 106.38c1.67 10.53 12.1 19.1 23.27 19.1h284.19a16.89 16.89 0 0 0 13.16-5.62 15.35 15.35 0 0 0 3.32-12.59L553.46 40.6c-1.67-10.54-12.11-19.1-23.27-19.1z"></path><g clip-path="url(#D)" class="R"><path d="M601.63 55.52H193.48L184.71 0h408.15z"></path></g><path d="M319.09 38.49a5.13 5.13 0 0 1-5.36 6 7.48 7.48 0 0 1-7.25-6 5.12 5.12 0 0 1 5.35-6 7.49 7.49 0 0 1 7.26 6zm-24.36 0a5.12 5.12 0 0 1-5.35 6 7.49 7.49 0 0 1-7.26-6 5.13 5.13 0 0 1 5.36-6 7.48 7.48 0 0 1 7.25 6zm-23.31 0a5.12 5.12 0 0 1-5.35 6 7.48 7.48 0 0 1-7.25-6 5.13 5.13 0 0 1 5.36-6 7.48 7.48 0 0 1 7.24 6z" class="Q R"></path><path d="M610.53 198h138.86a2.84 2.84 0 0 0 0-5.67H610.53a2.84 2.84 0 1 0 0 5.67zm5.47 19.91h40.71a2.84 2.84 0 1 0 0-5.67H616a2.84 2.84 0 1 0 0 5.67zm56.37 0h82.5a2.84 2.84 0 1 0 0-5.67h-82.5a2.84 2.84 0 1 0 0 5.67zm-52.21 18.92H759a2.84 2.84 0 0 0 0-5.67H620.16a2.84 2.84 0 0 0 0 5.67zm4.84 20.91h138.86a2.84 2.84 0 0 0 0-5.67H625a2.84 2.84 0 0 0 0 5.67z"></path><path d="M600.12 198.77l13.82 87.5c.83 5.21-3 9.43-8.46 9.43H480.71c-5.5 0-10.62-4.22-11.45-9.43l-13.82-87.5c-.82-5.21 3-9.43 8.47-9.43h124.76c5.51 0 10.63 4.22 11.45 9.43z" class="Q"></path><path d="M466.46 286.71l-13.82-87.5a10.76 10.76 0 0 1 2.39-8.81 11.6 11.6 0 0 1 8.88-3.9h124.76c6.94 0 13.2 5.2 14.25 11.83l13.82 87.5a10.75 10.75 0 0 1-2.38 8.81 11.58 11.58 0 0 1-8.88 3.9H480.71c-6.93 0-13.19-5.2-14.25-11.83zm-2.55-94.54a5.85 5.85 0 0 0-4.57 1.91 5.18 5.18 0 0 0-1.1 4.24l13.82 87.51c.61 3.82 4.57 7 8.65 7h124.77a5.86 5.86 0 0 0 4.57-1.91 5.16 5.16 0 0 0 1.1-4.25l-13.82-87.5c-.61-3.82-4.57-7-8.65-7z"></path><g class="T"><path d="M545.41 72.19l10.05 63.77c.6 3.8-2.16 6.88-6.16 6.88h-90.8a8.59 8.59 0 0 1-8.33-6.88l-10.05-63.77c-.6-3.8 2.16-6.87 6.16-6.87h90.8a8.59 8.59 0 0 1 8.33 6.87z" class="R"></path><path d="M255.68 77.23h172.74a2.84 2.84 0 1 0 0-5.67H255.68a2.84 2.84 0 1 0 0 5.67zm3.97 18.9h50.65a2.84 2.84 0 1 0 0-5.67h-50.65a2.84 2.84 0 0 0 0 5.67zm70.11 0h102.63a2.84 2.84 0 1 0 0-5.67H329.76a2.84 2.84 0 1 0 0 5.67zm-67.65 17.96h172.74a2.84 2.84 0 0 0 0-5.67H262.11a2.84 2.84 0 1 0 0 5.67zm3.02 19.84h172.74a2.84 2.84 0 0 0 0-5.67H265.13a2.84 2.84 0 1 0 0 5.67z"></path></g><g opacity=".82"><path d="M764.44 155.83l31.49 199.25c1.87 11.86-6.76 21.48-19.29 21.48H492.39c-12.53 0-24.19-9.62-26.07-21.48l-31.49-199.25c-1.88-11.86 6.76-21.48 19.28-21.48h284.25c12.53-.01 24.2 9.6 26.08 21.48z" class="Q"></path><path d="M463.52 355.51L432 156.26a20.9 20.9 0 0 1 4.6-17.15c4.19-4.91 10.4-7.61 17.48-7.61h284.28c13.84 0 26.8 10.71 28.87 23.87l31.49 199.25a20.9 20.9 0 0 1-4.61 17.15c-4.19 4.91-10.4 7.61-17.48 7.61H492.39c-13.84 0-26.79-10.71-28.87-23.87zm-9.4-218.33a16.91 16.91 0 0 0-13.18 5.65 15.34 15.34 0 0 0-3.31 12.58l31.48 199.25c1.67 10.53 12.11 19.09 23.27 19.09h284.26a16.91 16.91 0 0 0 13.17-5.62 15.35 15.35 0 0 0 3.32-12.58l-31.49-199.29c-1.67-10.53-12.1-19.09-23.27-19.09z"></path><g clip-path="url(#E)" class="R"><path d="M796.17 171.2H387.95l-8.77-55.5h408.23z"></path></g></g><path d="M476.81 314.32h138.77a2.84 2.84 0 1 0 0-5.67H476.81a2.84 2.84 0 0 0 0 5.67zm3.85 14.51h40.69a2.84 2.84 0 0 0 0-5.67h-40.69a2.84 2.84 0 1 0 0 5.67zm56.34 0h82.45a2.84 2.84 0 1 0 0-5.67H537a2.84 2.84 0 1 0 0 5.67zm-53.72 13.82h138.77a2.84 2.84 0 0 0 0-5.67H483.28a2.84 2.84 0 0 0 0 5.67zm3.14 15.25h138.77a2.84 2.84 0 0 0 0-5.67H486.42a2.84 2.84 0 0 0 0 5.67z" fill="#bdbdbd"></path><path d="M735.37 314.06l23.65 41h-47.3z" fill="#eae7e7"></path><path d="M668 274.54h31.56l15.78 27.36-15.78 27.36H668l-15.8-27.36z" fill="#bdbdbd"></path><path d="M527.53 154.26a5.12 5.12 0 0 1-5.35 6 7.48 7.48 0 0 1-7.26-6 5.12 5.12 0 0 1 5.36-6 7.48 7.48 0 0 1 7.25 6zm-24.36 0a5.12 5.12 0 0 1-5.36 6 7.48 7.48 0 0 1-7.25-6 5.12 5.12 0 0 1 5.36-6 7.48 7.48 0 0 1 7.25 6zm-23.32 0a5.13 5.13 0 0 1-5.36 6 7.49 7.49 0 0 1-7.25-6 5.13 5.13 0 0 1 5.36-6 7.49 7.49 0 0 1 7.25 6z" class="Q R"></path></svg> 